<svg width="171" height="155" viewBox="0 0 171 155" fill="none" xmlns="http://www.w3.org/2000/svg">
<path d="M31.64 64.48C32.68 64.48 33.56 64.74 34.28 65.26C35 65.74 35.36 66.34 35.36 67.06C35.36 68.34 34.96 69.38 34.16 70.18C33.36 70.94 32.22 71.32 30.74 71.32C28.42 71.32 26.66 71.34 25.46 71.38C25.38 71.86 25.02 74.02 24.38 77.86C23.66 82.14 23.22 84.76 23.06 85.72L21.8 93.58C20.92 99.46 20.22 104.38 19.7 108.34C20.54 108.3 21.68 108.28 23.12 108.28C25.24 108.28 26.68 108.56 27.44 109.12C28.2 109.68 28.58 110.52 28.58 111.64C28.58 112.68 28.16 113.56 27.32 114.28C26.52 115 25.38 115.36 23.9 115.36C22.9 115.36 21.32 115.32 19.16 115.24C17.16 115.16 15.84 115.12 15.2 115.12C12.68 115.12 9.92 115.34 6.92 115.78C5.6 115.98 4.66 116.08 4.1 116.08C3.22 116.08 2.48 115.84 1.88 115.36C1.28 114.88 0.98 114.18 0.98 113.26C0.98 111.82 1.62 110.7 2.9 109.9C4.18 109.1 5.98 108.68 8.3 108.64L11.12 108.58L11.3 107.26C12.26 100.86 12.96 96.34 13.4 93.7L14.72 85.84C15.52 81.2 16.24 76.42 16.88 71.5L11.84 71.56C10.4 71.56 9.4 71.34 8.84 70.9C8.32 70.42 8.06 69.76 8.06 68.92C8.06 66.2 10.02 64.74 13.94 64.54C15.78 64.46 18.02 64.42 20.66 64.42L31.64 64.48ZM82.167 65.2C83.407 65.44 84.327 65.86 84.927 66.46C85.567 67.06 85.887 67.76 85.887 68.56C85.887 69.88 85.507 70.84 84.747 71.44C84.027 72.04 82.867 72.28 81.267 72.16C77.667 71.88 74.847 71.7 72.807 71.62C70.807 71.5 68.167 71.42 64.887 71.38C63.407 78.74 62.047 86.14 60.807 93.58C60.367 96.3 59.907 99.46 59.427 103.06C58.947 106.62 58.627 109.5 58.467 111.7C58.387 112.86 57.907 113.76 57.027 114.4C56.147 115 55.087 115.3 53.847 115.3C52.527 115.3 51.507 114.98 50.787 114.34C50.067 113.7 49.707 112.86 49.707 111.82C49.707 110.86 49.847 109.28 50.127 107.08C50.447 104.84 50.807 102.5 51.207 100.06C51.647 97.62 51.987 95.5 52.227 93.7C52.667 90.66 53.167 87.64 53.727 84.64C54.287 81.64 54.847 78.8 55.407 76.12C55.527 75.52 55.667 74.84 55.827 74.08C55.987 73.28 56.167 72.4 56.367 71.44C52.447 71.56 49.367 71.88 47.127 72.4C44.887 72.92 43.287 73.66 42.327 74.62C41.407 75.54 40.947 76.74 40.947 78.22C40.947 79.58 41.347 80.88 42.147 82.12C42.307 82.4 42.387 82.7 42.387 83.02C42.387 83.78 41.927 84.5 41.007 85.18C40.127 85.82 39.207 86.14 38.247 86.14C37.567 86.14 37.007 85.94 36.567 85.54C35.767 84.86 35.107 83.9 34.587 82.66C34.067 81.38 33.807 79.94 33.807 78.34C33.807 74.94 34.907 72.22 37.107 70.18C39.347 68.1 42.727 66.58 47.247 65.62C51.807 64.66 57.647 64.18 64.767 64.18C69.167 64.18 72.667 64.26 75.267 64.42C77.907 64.58 80.207 64.84 82.167 65.2Z" fill="#F34237"/>
<path d="M167.328 63.784C168.267 63.784 169.029 64.224 169.616 65.104C170.261 65.9253 170.584 67.1867 170.584 68.888C170.584 70.472 170.261 71.6747 169.616 72.496C168.971 73.2587 168.149 73.9627 167.152 74.608C166.213 75.2533 165.539 75.7227 165.128 76.016C158.909 80.2987 154.568 85.1973 152.104 90.712C149.699 96.2267 148.232 102.123 147.704 108.4C147.469 110.864 146.795 112.653 145.68 113.768C144.624 114.883 143.275 115.44 141.632 115.44C139.989 115.44 138.611 114.883 137.496 113.768C136.381 112.595 135.824 110.571 135.824 107.696C135.824 104.352 136.44 100.685 137.672 96.696C138.963 92.648 140.987 88.6293 143.744 84.64C146.56 80.6507 150.109 77.1013 154.392 73.992L132.744 74.344C131.512 74.344 130.573 73.9333 129.928 73.112C129.283 72.2907 128.96 71.264 128.96 70.032C128.96 68.5067 129.429 67.1573 130.368 65.984C131.365 64.752 132.685 64.136 134.328 64.136C137.203 64.136 141.397 64.3413 146.912 64.752C148.027 64.8107 150.08 64.928 153.072 65.104C156.064 65.28 158.411 65.368 160.112 65.368C160.875 65.368 161.989 65.104 163.456 64.576C163.749 64.5173 164.307 64.3707 165.128 64.136C166.008 63.9013 166.741 63.784 167.328 63.784Z" fill="#F34237"/>
<path d="M113.559 99.0503C113.559 98.6106 113.451 98.1363 113.206 97.6572C113.266 97.458 113.309 97.2569 113.342 97.0553C113.449 96.9911 113.555 96.9123 113.649 96.8078C114.277 96.108 114.052 94.7463 113.862 93.9967C113.843 93.922 113.813 93.8502 113.774 93.7834C113.832 93.5716 113.862 93.3503 113.862 93.1192C113.863 87.5045 107.644 82.9375 100 82.9375C92.3556 82.9375 86.1372 87.5045 86.1372 93.1192C86.1372 93.3498 86.1681 93.5716 86.2253 93.7834C86.1868 93.8498 86.1573 93.9211 86.1377 93.9953C85.9478 94.7444 85.7228 96.1038 86.3481 96.8027C86.41 97.1772 86.5141 97.5536 86.6725 97.9263C86.5237 98.2823 86.4456 98.6639 86.4424 99.0498C86.4424 99.408 86.4761 99.7553 86.5375 100.095C86.3011 100.647 86.1783 101.242 86.1766 101.843C86.177 106.049 88.5752 111.062 100 111.062C111.425 111.062 113.823 106.049 113.823 101.844C113.821 101.243 113.699 100.648 113.463 100.096C113.524 99.7563 113.559 99.4084 113.559 99.0503ZM112.925 93.1192C112.925 95.4859 107.731 97.0759 100 97.0759C92.2689 97.0759 87.0747 95.4855 87.0747 93.1192C87.0747 88.0052 92.8731 83.845 100 83.845C107.127 83.845 112.925 88.0052 112.925 93.1192ZM100 110.155C91.4495 110.155 87.1141 107.359 87.1141 101.844C87.1141 101.793 87.115 101.742 87.1174 101.691C88.8592 105.177 93.183 106.942 100 106.942C106.818 106.942 111.14 105.178 112.883 101.693C112.885 101.743 112.885 101.793 112.885 101.844C112.885 107.359 108.55 110.155 100 110.155ZM112.868 98.7841L112.863 98.7742L112.84 98.8591C111.713 101.644 108.174 103.572 101.272 103.781L98.9908 106.017C98.9233 106.016 98.8525 106.016 98.7855 106.014L96.2744 103.619C90.9883 103.071 88.1584 101.303 87.1661 98.8797L87.1375 98.7747L87.1291 98.7925C87.1188 98.7658 87.1056 98.7405 87.0958 98.7137C87.8392 99.8781 89.1259 100.973 91.143 101.832C92.7255 102.506 94.1289 102.768 95.3463 102.734L93.4019 100.879C92.7886 100.722 92.1884 100.517 91.6066 100.267C90.9146 99.9764 90.2523 99.6194 89.6289 99.2013C89.7817 99.2556 89.9416 99.2927 90.1164 99.2927C90.4895 99.2927 90.8505 99.1656 91.1688 99.0531C91.2653 99.0194 91.4031 98.9706 91.5128 98.9397C91.5616 99.0255 91.6159 99.1314 91.6572 99.213C91.8906 99.6705 92.2094 100.296 92.8802 100.489C93.0016 100.523 93.1286 100.541 93.2584 100.541C93.7474 100.541 94.1688 100.297 94.5405 100.082C94.6286 100.03 94.7458 99.9625 94.8419 99.9142C94.9042 99.9906 94.9745 100.087 95.0284 100.16C95.3289 100.568 95.7405 101.127 96.4197 101.215C96.4783 101.223 96.5359 101.227 96.5941 101.227C97.1744 101.227 97.6333 100.863 98.0022 100.571C98.08 100.509 98.1817 100.428 98.2675 100.367C98.3402 100.435 98.4241 100.522 98.4888 100.588C98.8591 100.969 99.3203 101.445 100 101.445C100.681 101.445 101.141 100.97 101.512 100.588C101.577 100.522 101.66 100.435 101.733 100.367C101.82 100.428 101.921 100.509 101.999 100.57C102.367 100.863 102.827 101.227 103.407 101.227C103.465 101.227 103.523 101.223 103.58 101.216C103.735 101.195 103.886 101.149 104.026 101.08L102.917 102.167C104.123 102.448 105.586 102.461 107.326 102.081C110.775 101.328 112.533 99.6452 113.15 97.8189C113.086 98.1487 112.992 98.4719 112.868 98.7841ZM87.6438 97.2878L87.7066 97.2883C87.8144 97.2883 87.9269 97.2841 88.0403 97.2808C88.1341 97.277 88.2283 97.2733 88.3206 97.2733C88.368 97.2733 88.4064 97.2747 88.4378 97.2761C88.4659 97.3703 88.495 97.4908 88.517 97.5827C88.6014 97.9309 88.7111 98.365 88.9722 98.7147C88.4205 98.2614 87.9794 97.7823 87.6438 97.2878ZM104.333 100.879C104.593 100.669 104.796 100.399 104.973 100.159C105.027 100.086 105.098 99.9897 105.16 99.9133C105.256 99.962 105.372 100.029 105.46 100.081C105.832 100.296 106.252 100.54 106.742 100.54C106.871 100.54 106.998 100.522 107.12 100.488C107.791 100.295 108.11 99.6691 108.343 99.2116C108.385 99.13 108.438 99.0245 108.487 98.9392C108.597 98.9697 108.735 99.0189 108.831 99.0527C109.15 99.1647 109.51 99.2922 109.884 99.2922C109.988 99.2922 110.086 99.2777 110.182 99.2584C109.299 99.8252 108.173 100.291 106.759 100.6C105.962 100.777 105.149 100.871 104.333 100.879ZM111.171 98.4906C111.332 98.1911 111.415 97.8611 111.482 97.5845C111.504 97.4931 111.533 97.3722 111.561 97.2784C111.592 97.2766 111.63 97.2756 111.676 97.2756C111.768 97.2756 111.864 97.2794 111.958 97.2822C112.021 97.2845 112.081 97.285 112.142 97.2869C111.876 97.7316 111.55 98.1368 111.171 98.4906ZM112.973 96.2017C112.837 96.3522 112.584 96.3831 112.295 96.3831C112.097 96.3831 111.88 96.3686 111.677 96.3686C111.4 96.3686 111.142 96.3953 110.972 96.52C110.538 96.8373 110.647 98.058 110.122 98.3336C110.052 98.3697 109.973 98.3852 109.885 98.3852C109.443 98.3852 108.809 98.0022 108.341 98.0017C108.265 98.0002 108.188 98.0132 108.116 98.0402C107.607 98.2398 107.428 99.4553 106.868 99.6161C106.827 99.6277 106.785 99.6333 106.742 99.633C106.249 99.633 105.573 98.9477 105.057 98.9477C105.022 98.9477 104.988 98.9509 104.953 98.9575C104.411 99.0672 104.036 100.24 103.463 100.315C103.444 100.317 103.425 100.318 103.407 100.318C102.876 100.318 102.243 99.3883 101.694 99.3883L101.665 99.3892C101.108 99.4244 100.576 100.536 100.001 100.536C99.4253 100.536 98.8947 99.4244 98.3378 99.3892C98.3278 99.3887 98.3178 99.3884 98.3078 99.3883C97.7584 99.3883 97.1256 100.318 96.595 100.318C96.5764 100.318 96.5577 100.317 96.5392 100.315C95.966 100.24 95.5919 99.0672 95.0486 98.9575C95.0145 98.9506 94.9798 98.9473 94.945 98.9477C94.4294 98.9477 93.7525 99.633 93.2589 99.633C93.2163 99.6333 93.1738 99.6277 93.1328 99.6161C92.5722 99.4548 92.3936 98.2389 91.8841 98.0402C91.812 98.0133 91.7355 98.0002 91.6586 98.0017C91.1917 98.0017 90.558 98.3847 90.1169 98.3847C90.0288 98.3847 89.9481 98.3692 89.8778 98.3327C89.3538 98.0561 89.4611 96.8355 89.0289 96.5191C88.8569 96.393 88.5986 96.3667 88.3211 96.3667C88.1177 96.3667 87.9039 96.3813 87.7066 96.3813C87.4169 96.3813 87.1624 96.3508 87.0269 96.1989C86.8131 95.9608 86.8277 95.4072 86.8867 94.9455C88.8892 97.1505 94.5934 97.983 100 97.983C105.408 97.983 111.112 97.1505 113.114 94.9455C113.173 95.4081 113.187 95.9627 112.973 96.2017Z" fill="#F34237"/>
<path d="M92.0205 89.2984L91.3108 88.6178L90.6011 89.2984L91.3108 89.9786L92.0205 89.2984Z" fill="#F34237"/>
<path d="M94.8095 88.8606L95.5188 88.18L94.8095 87.4994L94.0999 88.18L94.8095 88.8606Z" fill="#F34237"/>
<path d="M97.5044 91.2873L96.7951 90.6067L96.0854 91.2873L96.7951 91.9675L97.5044 91.2873Z" fill="#F34237"/>
<path d="M99.9574 88.8452L99.4849 88.3914L99.0114 88.8452L99.4849 89.2984L99.9574 88.8452Z" fill="#F34237"/>
<path d="M107.803 90.6067L108.277 91.06L108.75 90.6067L108.277 90.1534L107.803 90.6067Z" fill="#F34237"/>
<path d="M111.623 91.06L111.15 90.6067L110.676 91.06L111.15 91.5138L111.623 91.06Z" fill="#F34237"/>
<path d="M106.157 87.7262L105.685 87.2725L105.212 87.7262L105.685 88.18L106.157 87.7262Z" fill="#F34237"/>
<path d="M91.8475 87.1595L91.375 86.7058L90.9016 87.1595L91.375 87.6133L91.8475 87.1595Z" fill="#F34237"/>
<path d="M89.3237 89.2984L88.8508 88.8452L88.3778 89.2984L88.8508 89.7522L89.3237 89.2984Z" fill="#F34237"/>
<path d="M91.3108 92.2937L91.7842 92.7475L92.2567 92.2937L91.7842 91.84L91.3108 92.2937Z" fill="#F34237"/>
<path d="M97.7406 85.345L97.2681 84.8913L96.7952 85.345L97.2681 85.7988L97.7406 85.345Z" fill="#F34237"/>
<path d="M102.206 84.8913L101.733 84.4375L101.26 84.8913L101.733 85.345L102.206 84.8913Z" fill="#F34237"/>
<path d="M94.8091 85.7988L94.3366 85.345L93.8636 85.7988L94.3366 86.252L94.8091 85.7988Z" fill="#F34237"/>
<path d="M108.246 86.8755L107.773 86.4222L107.3 86.8755L107.773 87.3292L108.246 86.8755Z" fill="#F34237"/>
<path d="M102.443 93.2561L103.152 92.5755L102.443 91.8948L101.733 92.5755L102.443 93.2561Z" fill="#F34237"/>
<path d="M102.041 89.087L101.332 88.4069L100.622 89.087L101.332 89.7677L102.041 89.087Z" fill="#F34237"/>
<path d="M104.655 86.4789L103.946 85.7987L103.236 86.4789L103.946 87.1595L104.655 86.4789Z" fill="#F34237"/>
<path d="M105.281 89.3903L105.991 90.0709L106.7 89.3903L105.991 88.7097L105.281 89.3903Z" fill="#F34237"/>
<path d="M109.696 88.4069L108.986 87.7262L108.277 88.4069L108.986 89.087L109.696 88.4069Z" fill="#F34237"/>
<path d="M106.7 93.0719L107.41 92.3917L106.7 91.7111L105.991 92.3917L106.7 93.0719Z" fill="#F34237"/>
<path d="M88.8503 91.2142L89.5605 91.8948L90.2697 91.2142L89.5605 90.5341L88.8503 91.2142Z" fill="#F34237"/>
</svg>
